# xmcd
#
# Track frame offsets: 
#        150
#        31062
#        56417
#        77677
#        100507
#        133082
#        154755
#        181330
#        198815
#        220342
#        236700
#        240967
#        265902
#
# Disc length: 3923 seconds
#
# Revision: 1
# Processed by: cddbd v1.5.2PL0 Copyright (c) Steve Scherf et al.
# Submitted via: ExactAudioCopyFreeDBPlugin 1.0
#
DISCID=a00f510d
DTITLE=NAMCO - Ridge Racer (Y)
DYEAR=1900
DGENRE=Electronic
TTITLE0=Ridge Racer - Jazz Step Mix (S.Hosoe)
TTITLE1=Rare Hero - Meet The New Mix (N.Sano \\\\ S.Hosoe)
TTITLE2=Ridge Racer - Future Groove Mix (S.Hosoe)
TTITLE3=Rhythm Shift - Full Throttle Mix (S.Hosoe)
TTITLE4=Ridge Racer - Power Mix (S.Hosoe)
TTITLE5=Rare Hero - Sanodigy Mix (N.Sano \\\\ S.Hosoe)
TTITLE6=Feeling Over - Underground (A.Sano \\\\ S.Hosoe)
TTITLE7=Rotterdam Nation - Foo Mix (S.Hosoe)
TTITLE8=Speedstar - I Like A T Mix (S.Hosoe)
TTITLE9=Rhythm Shift - 12'' Version (S.Hosoe)
TTITLE10=Win Win Win - Death Mix (S.Hosoe)
TTITLE11=Rare Hero - Underground Mix (N.Sano \\\\ S.Hosoe)
TTITLE12=Ridge Racer - Jazz Club Mix (S.Hosoe)
EXTD=
EXTT0=
EXTT1=
EXTT2=
EXTT3=
EXTT4=
EXTT5=
EXTT6=
EXTT7=
EXTT8=
EXTT9=
EXTT10=
EXTT11=
EXTT12=
PLAYORDER=
